HIERARCHY
ROOT Hips
{
  OFFSET 5.84602e-005 68.8428 3.50346
  CHANNELS 6 Xposition Yposition Zposition Zrotation Xrotation Yrotation
  JOINT Spine
  {
    OFFSET 0 8.597 -4.6522
    CHANNELS 3 Zrotation Xrotation Yrotation
    JOINT Spine1
    {
      OFFSET 0 7.8454 0.4098
      CHANNELS 3 Zrotation Xrotation Yrotation
      JOINT Spine2
      {
        OFFSET 0 9.7078 -2.1609
        CHANNELS 3 Zrotation Xrotation Yrotation
        JOINT Neck
        {
          OFFSET 0 21.8761 -0.4549
          CHANNELS 3 Zrotation Xrotation Yrotation
          JOINT Head
          {
            OFFSET 0 12.3537 3.3602
            CHANNELS 3 Zrotation Xrotation Yrotation
            End Site
            {
              OFFSET 0.0001 18.9506 0.5657
            }
          }
        }
        JOINT LeftShoulder
        {
          OFFSET 2.2086 21.1115 7.2329
          CHANNELS 3 Zrotation Xrotation Yrotation
          JOINT LeftArm
          {
            OFFSET 13.1193 3.0282 -4.8998
            CHANNELS 3 Zrotation Xrotation Yrotation
            JOINT LeftForeArm
            {
              OFFSET 27.4081 -0.0973053 -0.2375
              CHANNELS 3 Zrotation Xrotation Yrotation
              JOINT LeftHand
              {
                OFFSET 22.8641 0.0662994 -0.1369
                CHANNELS 3 Zrotation Xrotation Yrotation
                JOINT LeftHandIndex1
                {
                  OFFSET 8.8614 0.775009 2.4612
                  CHANNELS 3 Zrotation Xrotation Yrotation
                  JOINT LeftHandIndex2
                  {
                    OFFSET 3.3146 -0.808304 0.5841
                    CHANNELS 3 Zrotation Xrotation Yrotation
                    JOINT LeftHandIndex3
                    {
                      OFFSET 2.2628 -0.552002 0.3989
                      CHANNELS 3 Zrotation Xrotation Yrotation
                      End Site
                      {
                        OFFSET 1.6102 -0.4807 0.2612
                      }
                    }
                  }
                }
                JOINT LeftHandMiddle1
                {
                  OFFSET 8.9937 0.895004 0.2143
                  CHANNELS 3 Zrotation Xrotation Yrotation
                  JOINT LeftHandMiddle2
                  {
                    OFFSET 4.0984 0.0113983 -0.0242
                    CHANNELS 3 Zrotation Xrotation Yrotation
                    JOINT LeftHandMiddle3
                    {
                      OFFSET 2.2716 0.00689697 -0.0138001
                      CHANNELS 3 Zrotation Xrotation Yrotation
                      End Site
                      {
                        OFFSET 2.0404 -0.1441 0.0027
                      }
                    }
                  }
                }
                JOINT LeftHandRing1
                {
                  OFFSET 8.5234 0.597198 -2.0164
                  CHANNELS 3 Zrotation Xrotation Yrotation
                  JOINT LeftHandRing2
                  {
                    OFFSET 3.7188 -0.188293 -0.2328
                    CHANNELS 3 Zrotation Xrotation Yrotation
                    JOINT LeftHandRing3
                    {
                      OFFSET 2.1191 -0.106598 -0.1332
                      CHANNELS 3 Zrotation Xrotation Yrotation
                      End Site
                      {
                        OFFSET 1.8737 -0.2304 -0.0886
                      }
                    }
                  }
                }
                JOINT LeftHandPinky1
                {
                  OFFSET 7.9094 -0.601089 -3.4825
                  CHANNELS 3 Zrotation Xrotation Yrotation
                  JOINT LeftHandPinky2
                  {
                    OFFSET 2.2874 -0.477005 -0.6314
                    CHANNELS 3 Zrotation Xrotation Yrotation
                    JOINT LeftHandPinky3
                    {
                      OFFSET 1.6774 -0.349396 -0.4633
                      CHANNELS 3 Zrotation Xrotation Yrotation
                      End Site
                      {
                        OFFSET 1.4888 -0.4091 -0.3416
                      }
                    }
                  }
                }
                JOINT LeftHandThumb1
                {
                  OFFSET 1.833 -1.3875 1.3896
                  CHANNELS 3 Zrotation Xrotation Yrotation
                  JOINT LeftHandThumb2
                  {
                    OFFSET 3.4129 -1.121 2.5732
                    CHANNELS 3 Zrotation Xrotation Yrotation
                    JOINT LeftHandThumb3
                    {
                      OFFSET 2.2474 -0.804199 1.6192
                      CHANNELS 3 Zrotation Xrotation Yrotation
                      End Site
                      {
                        OFFSET 1.6527 -0.5689 1.1317
                      }
                    }
                  }
                }
              }
            }
          }
        }
        JOINT RightShoulder
        {
          OFFSET -2.2086 21.1115 7.2329
          CHANNELS 3 Zrotation Xrotation Yrotation
          JOINT RightArm
          {
            OFFSET -13.1216 3.0287 -4.9007
            CHANNELS 3 Zrotation Xrotation Yrotation
            JOINT RightForeArm
            {
              OFFSET -27.4081 -0.0973053 -0.2375
              CHANNELS 3 Zrotation Xrotation Yrotation
              JOINT RightHand
              {
                OFFSET -22.8641 0.0664063 -0.1369
                CHANNELS 3 Zrotation Xrotation Yrotation
                JOINT RightHandIndex1
                {
                  OFFSET -8.8614 0.774994 2.4612
                  CHANNELS 3 Zrotation Xrotation Yrotation
                  JOINT RightHandIndex2
                  {
                    OFFSET -3.3146 -0.808304 0.5841
                    CHANNELS 3 Zrotation Xrotation Yrotation
                    JOINT RightHandIndex3
                    {
                      OFFSET -2.2628 -0.552002 0.3989
                      CHANNELS 3 Zrotation Xrotation Yrotation
                      End Site
                      {
                        OFFSET -1.6102 -0.4807 0.2612
                      }
                    }
                  }
                }
                JOINT RightHandMiddle1
                {
                  OFFSET -8.9937 0.894989 0.2143
                  CHANNELS 3 Zrotation Xrotation Yrotation
                  JOINT RightHandMiddle2
                  {
                    OFFSET -4.0984 0.0113983 -0.0242
                    CHANNELS 3 Zrotation Xrotation Yrotation
                    JOINT RightHandMiddle3
                    {
                      OFFSET -2.2716 0.00691223 -0.0138001
                      CHANNELS 3 Zrotation Xrotation Yrotation
                      End Site
                      {
                        OFFSET -2.0404 -0.1441 0.0027
                      }
                    }
                  }
                }
                JOINT RightHandRing1
                {
                  OFFSET -8.5234 0.597198 -2.0164
                  CHANNELS 3 Zrotation Xrotation Yrotation
                  JOINT RightHandRing2
                  {
                    OFFSET -3.7188 -0.188309 -0.2328
                    CHANNELS 3 Zrotation Xrotation Yrotation
                    JOINT RightHandRing3
                    {
                      OFFSET -2.1191 -0.106598 -0.1332
                      CHANNELS 3 Zrotation Xrotation Yrotation
                      End Site
                      {
                        OFFSET -1.8737 -0.2304 -0.0886
                      }
                    }
                  }
                }
                JOINT RightHandPinky1
                {
                  OFFSET -7.9094 -0.601105 -3.4825
                  CHANNELS 3 Zrotation Xrotation Yrotation
                  JOINT RightHandPinky2
                  {
                    OFFSET -2.2874 -0.477005 -0.6314
                    CHANNELS 3 Zrotation Xrotation Yrotation
                    JOINT RightHandPinky3
                    {
                      OFFSET -1.6774 -0.349396 -0.4633
                      CHANNELS 3 Zrotation Xrotation Yrotation
                      End Site
                      {
                        OFFSET -1.4888 -0.4091 -0.3416
                      }
                    }
                  }
                }
                JOINT RightHandThumb1
                {
                  OFFSET -1.833 -1.38751 1.3896
                  CHANNELS 3 Zrotation Xrotation Yrotation
                  JOINT RightHandThumb2
                  {
                    OFFSET -3.41299 -1.12099 2.5732
                    CHANNELS 3 Zrotation Xrotation Yrotation
                    JOINT RightHandThumb3
                    {
                      OFFSET -2.24741 -0.804108 1.6192
                      CHANNELS 3 Zrotation Xrotation Yrotation
                      End Site
                      {
                        OFFSET -1.6527 -0.5689 1.1317
                      }
                    }
                  }
                }
              }
            }
          }
        }
      }
    }
  }
  JOINT RightUpLeg
  {
    OFFSET -9.1966 3.8861 -0.7581
    CHANNELS 3 Zrotation Xrotation Yrotation
    JOINT RightLeg
    {
      OFFSET -0.7359 -41.0265 0
      CHANNELS 3 Zrotation Xrotation Yrotation
      JOINT RightFoot
      {
        OFFSET 0 -40.2855 0
        CHANNELS 3 Zrotation Xrotation Yrotation
        JOINT RightToeBase
        {
          OFFSET 0 -5.6122 11.7359
          CHANNELS 3 Zrotation Xrotation Yrotation
          End Site
          {
            OFFSET 0 0 7.8731
          }
        }
      }
    }
  }
  JOINT LeftUpLeg
  {
    OFFSET 9.1965 3.8864 -0.7581
    CHANNELS 3 Zrotation Xrotation Yrotation
    JOINT LeftLeg
    {
      OFFSET 0.7359 -41.0268 0
      CHANNELS 3 Zrotation Xrotation Yrotation
      JOINT LeftFoot
      {
        OFFSET 0 -40.2855 0
        CHANNELS 3 Zrotation Xrotation Yrotation
        JOINT LeftToeBase
        {
          OFFSET 0 -5.6122 11.7359
          CHANNELS 3 Zrotation Xrotation Yrotation
          End Site
          {
            OFFSET 0 0 7.8731
          }
        }
      }
    }
  }
}
MOTION
Frames:	5
Frame Time:	0.0333333
-0.000143438 4.84274 85.5544 -180 -85.9956 -180 -0.00150993 0.412715 -0.0899901 -0.00237164 0.825489 -0.179976 -0.00237162 0.825483 -0.179976 6.59787e-006 12.4992 -2.09419e-005 -1.56103e-008 -1.92406 2.35362e-008 -0.269056 -4.3751 2.11593 -83.3932 0.382271 -2.09457 2.16951 -1.53619 -45.16 -16.5799 -1.86842 6.5082 3.97569e-016 1.59028e-015 -6.36111e-015 2.38542e-015 1.19271e-015 -0 7.95139e-016 3.97569e-016 6.36111e-015 3.97569e-016 1.59028e-015 -6.36111e-015 -0.0146044 -8.95487e-005 3.65985e-006 -7.61037e-007 3.76273e-007 -8.83214e-007 3.97569e-016 1.59028e-015 -6.36111e-015 -0.0187622 -0.0011763 4.82006e-005 -7.61434e-007 3.76204e-007 -8.83189e-007 3.97569e-016 1.59028e-015 -6.36111e-015 -0.0122683 -0.00324444 0.000670341 1.19271e-015 1.19271e-015 -0 3.97569e-016 1.59028e-015 -6.36111e-015 2.38542e-015 1.19271e-015 -0 7.95139e-016 3.97569e-016 6.36111e-015 1.91921 -0.0631755 -3.28512 82.9153 0.579778 0.799272 1.30969 2.85932 66.5776 16.3307 0.267683 -2.30847 -9.93923e-016 -1.98785e-016 -3.18055e-015 -2.5842e-015 7.95139e-016 6.36111e-015 1.68967e-015 1.98785e-015 -3.18055e-015 -9.93923e-016 -1.98785e-016 -3.18055e-015 0.0149989 -9.17959e-005 1.48811e-006 -1.78906e-015 -2.38542e-015 -3.18055e-015 -9.93923e-016 -1.98785e-016 -3.18055e-015 0.0190156 -0.00119224 -5.56037e-005 -1.09332e-015 -3.97569e-016 -0 -9.93923e-016 -1.98785e-016 -3.18055e-015 0.0122657 -0.00324701 -0.00067704 -2.98177e-016 1.59028e-015 -0 -9.93923e-016 -1.98785e-016 -3.18055e-015 -2.5842e-015 7.95139e-016 6.36111e-015 1.68967e-015 1.98785e-015 -3.18055e-015 -40.6065 -29.8801 -31.4337 -114.965 63.1917 121.05 -6.38037 11.7966 9.08054 -3.61714e-007 -1.1376e-006 3.37632e-006 40.3446 -29.8628 31.0637 114.97 63.1904 -121.06 6.09893 11.8233 -8.90415 -1.00336e-007 9.85543e-007 1.67051e-006 
-0.000136917 4.84269 85.5544 -180 -85.9956 -180 -0.00145133 0.392686 -0.0899878 -0.00228597 0.785375 -0.179972 -0.00228598 0.785361 -0.179972 4.51292e-006 12.8338 -1.38988e-005 -2.92538e-008 -1.53948 -2.5829e-008 -0.543111 -4.23326 2.03222 -83.1948 0.356221 -2.16071 2.21538 -1.58886 -44.9738 -16.5739 -1.79312 6.36073 1.19271e-015 3.97569e-016 -0 -6.62086e-032 -3.97569e-016 -9.54166e-015 3.97569e-016 -7.95139e-016 3.18055e-015 1.19271e-015 3.97569e-016 -0 -0.0145955 -9.27748e-005 -8.82092e-007 -2.20695e-031 1.98785e-015 6.36111e-015 1.19271e-015 3.97569e-016 -0 -0.0187661 -0.00117287 5.67916e-005 -1.59028e-015 3.97569e-016 -0 1.19271e-015 3.97569e-016 -0 -0.0122535 -0.00324537 0.000672431 1.98626e-031 1.19271e-015 -9.54166e-015 1.19271e-015 3.97569e-016 -0 -6.62086e-032 -3.97569e-016 -9.54166e-015 3.97569e-016 -7.95139e-016 3.18055e-015 2.13154 -0.0738378 -3.17046 82.7326 0.548429 0.910999 1.27654 2.76743 66.3093 16.3307 0.267688 -2.30848 1.68967e-015 5.96354e-016 9.54166e-015 3.27995e-015 2.5842e-015 6.36111e-015 -8.94531e-016 -3.97569e-016 3.18055e-015 1.68967e-015 5.96354e-016 9.54166e-015 0.015004 -8.97734e-005 1.5952e-006 -4.57205e-015 -7.95139e-016 -3.18055e-015 1.68967e-015 5.96354e-016 9.54166e-015 0.018973 -0.00119315 -6.09083e-005 -1.23171e-006 -4.23512e-007 -3.67643e-007 1.68967e-015 5.96354e-016 9.54166e-015 0.0122464 -0.0032436 -0.00067496 -4.47266e-015 0 -0 1.68967e-015 5.96354e-016 9.54166e-015 3.27995e-015 2.5842e-015 6.36111e-015 -8.94531e-016 -3.97569e-016 3.18055e-015 -40.344 -29.9026 -31.1223 -114.965 63.1917 121.05 -6.10912 11.7751 8.88273 8.3359e-007 1.64026e-007 -7.70274e-008 40.0912 -29.8845 30.7652 114.969 63.1905 -121.06 5.83753 11.8001 -8.71268 1.25049e-006 -2.45989e-007 -1.14501e-007 
-0.000131159 4.84263 85.5543 -180 -85.9956 -180 -0.00139257 0.372556 -0.0899689 -0.00220021 0.74513 -0.179934 -0.00220018 0.745117 -0.179934 2.02718e-005 13.1678 -9.20958e-005 -3.35606e-008 -1.15491 5.88506e-008 -0.816904 -4.09068 1.94914 -82.9964 0.329946 -2.22675 2.26146 -1.64137 -44.7876 -16.5677 -1.71786 6.21323 3.97569e-016 -1.19271e-015 3.18055e-015 3.18055e-015 1.19271e-015 -3.18055e-015 7.95139e-016 -1.19271e-015 -0 3.97569e-016 -1.19271e-015 3.18055e-015 -0.0145937 -8.87093e-005 3.8274e-006 3.97569e-016 1.19271e-015 -6.36111e-015 3.97569e-016 -1.19271e-015 3.18055e-015 -0.0187933 -0.00117568 6.41587e-005 -7.95139e-016 0 1.27222e-014 3.97569e-016 -1.19271e-015 3.18055e-015 -0.0122459 -0.00324067 0.000673299 3.97569e-016 -1.59028e-015 3.18055e-015 3.97569e-016 -1.19271e-015 3.18055e-015 3.18055e-015 1.19271e-015 -3.18055e-015 7.95139e-016 -1.19271e-015 -0 2.34389 -0.0837167 -3.05586 82.5499 0.516714 1.02262 1.24299 2.67569 66.0409 16.3307 0.267686 -2.30847 1.19271e-015 1.98785e-016 -0 5.31298e-006 1.04381e-006 -9.34832e-007 -3.47873e-015 -1.39149e-015 3.18055e-015 1.19271e-015 1.98785e-016 -0 0.0149896 -8.90153e-005 -4.86561e-006 -1.09332e-015 1.39149e-015 -0 1.19271e-015 1.98785e-016 -0 0.018992 -0.00118704 -6.25876e-005 -5.96354e-016 -3.97569e-015 -6.36111e-015 1.19271e-015 1.98785e-016 -0 0.0122584 -0.00324419 -0.000677981 8.94531e-016 -1.98785e-016 -3.18055e-015 1.19271e-015 1.98785e-016 -0 5.31298e-006 1.04381e-006 -9.34832e-007 -3.47873e-015 -1.39149e-015 3.18055e-015 -40.0813 -29.9238 -30.8107 -114.964 63.1917 121.051 -5.838 11.7527 8.68502 8.33592e-007 1.63996e-007 -7.71001e-008 39.8375 -29.9053 30.4665 114.969 63.1906 -121.06 5.57623 11.776 -8.52132 8.33663e-007 -1.63962e-007 -7.64322e-008 
-0.000125394 4.84258 85.5543 -180 -85.9956 -180 -0.00133459 0.352696 -0.090013 -0.00211515 0.705387 -0.180023 -0.00211517 0.705374 -0.180023 -3.27192e-005 13.5013 0.000153261 -1.71217e-009 -0.770369 5.28108e-008 -1.0904 -3.94901 1.86704 -82.7981 0.303433 -2.29272 2.30769 -1.69374 -44.6013 -16.5614 -1.6426 6.06575 1.98785e-015 -1.59028e-015 -1.27222e-014 1.59028e-015 -2.38542e-015 -6.36111e-015 7.95139e-016 -1.98785e-015 -0 1.98785e-015 -1.59028e-015 -1.27222e-014 -0.014625 -8.896e-005 4.44689e-007 1.56694e-030 -2.82274e-014 3.18055e-015 1.98785e-015 -1.59028e-015 -1.27222e-014 -0.0187424 -0.00117781 6.29598e-005 -7.95139e-016 -1.59028e-015 6.36111e-015 1.98785e-015 -1.59028e-015 -1.27222e-014 -0.0122236 -0.00323689 0.000676273 4.41391e-032 -7.95139e-016 3.18055e-015 1.98785e-015 -1.59028e-015 -1.27222e-014 1.59028e-015 -2.38542e-015 -6.36111e-015 7.95139e-016 -1.98785e-015 -0 2.55625 -0.0944571 -2.94086 82.3673 0.484649 1.13414 1.20902 2.58412 65.7725 16.3307 0.267681 -2.30847 -2.83053e-006 -5.14481e-007 -6.85444e-007 -1.03624e-005 -3.41902e-006 8.59166e-007 -2.88238e-015 9.93923e-016 -6.36111e-015 -2.83053e-006 -5.14481e-007 -6.85444e-007 0.0150166 -9.1122e-005 4.0646e-006 2.82854e-006 5.14583e-007 6.85374e-007 -2.83053e-006 -5.14481e-007 -6.85444e-007 0.0189994 -0.00119232 -5.71577e-005 -1.19271e-015 -7.95139e-016 -3.18055e-015 -2.83053e-006 -5.14481e-007 -6.85444e-007 0.0122925 -0.00325622 -0.000679941 2.88238e-015 -1.19271e-015 6.36111e-015 -2.83053e-006 -5.14481e-007 -6.85444e-007 -1.03624e-005 -3.41902e-006 8.59166e-007 -2.88238e-015 9.93923e-016 -6.36111e-015 -39.8185 -29.9436 -30.499 -114.964 63.1919 121.051 -5.56699 11.7294 8.4875 6.69629e-007 9.9756e-007 -4.23984e-008 39.5838 -29.9247 30.1677 114.968 63.1908 -121.061 5.31502 11.751 -8.33009 -8.22792e-007 9.28135e-007 -1.62552e-006 
-0.000119604 4.84252 85.5543 -180 -85.9956 -180 -0.00127593 0.332594 -0.0900008 -0.00202944 0.665184 -0.179999 -0.00202941 0.665181 -0.179999 -2.63932e-005 13.8352 0.000110417 -4.58581e-008 -0.38587 4.78559e-008 -1.36365 -3.80577 1.78539 -82.5998 0.276698 -2.35857 2.35411 -1.74594 -44.4149 -16.5548 -1.56736 5.91826 1.19271e-015 1.59028e-015 -6.36111e-015 1.19271e-015 7.95139e-016 -9.54166e-015 1.59028e-015 2.38542e-015 6.36111e-015 1.19271e-015 1.59028e-015 -6.36111e-015 -0.0146258 -8.82231e-005 -5.1819e-006 1.59028e-015 0 -1.59028e-014 1.19271e-015 1.59028e-015 -6.36111e-015 -0.0187449 -0.00118192 6.1332e-005 7.61765e-007 -3.76735e-007 8.83275e-007 1.19271e-015 1.59028e-015 -6.36111e-015 -0.0122428 -0.00324456 0.000672195 -7.95139e-016 0 -3.18055e-015 1.19271e-015 1.59028e-015 -6.36111e-015 1.19271e-015 7.95139e-016 -9.54166e-015 1.59028e-015 2.38542e-015 6.36111e-015 2.76863 -0.103586 -2.82616 82.1847 0.452246 1.24554 1.1746 2.4927 65.5041 16.3307 0.267683 -2.30847 -2.83258e-006 -5.17079e-007 -6.90933e-007 -1.22557e-006 -4.21658e-007 -3.56288e-007 -2.28602e-015 -2.44505e-014 3.18055e-015 -2.83258e-006 -5.17079e-007 -6.90933e-007 0.0150051 -8.96213e-005 6.02666e-007 4.67144e-015 -7.95139e-016 3.18055e-015 -2.83258e-006 -5.17079e-007 -6.90933e-007 0.0190057 -0.00119288 -6.07384e-005 2.83007e-006 5.17353e-007 6.90826e-007 -2.83258e-006 -5.17079e-007 -6.90933e-007 0.0122825 -0.00325093 -0.000677819 7.95139e-016 7.95139e-016 -6.36111e-015 -2.83258e-006 -5.17079e-007 -6.90933e-007 -1.22557e-006 -4.21658e-007 -3.56288e-007 -2.28602e-015 -2.44505e-014 3.18055e-015 -39.5554 -29.9624 -30.1871 -114.963 63.1919 121.052 -5.29611 11.7052 8.29006 -4.16798e-007 -8.19672e-008 3.86225e-008 39.3298 -29.9432 29.8687 114.968 63.1909 -121.061 5.05396 11.7253 -8.13901 1.53255e-007 6.93208e-008 1.66733e-006 
